<?xml version="1.0" encoding="UTF-8"?>
<!DOCTYPE svg PUBLIC "-//W3C//DTD SVG 1.1//EN" "http://www.w3.org/Graphics/SVG/1.1/DTD/svg11.dtd">
<svg version="1.1" xmlns="http://www.w3.org/2000/svg" xmlns:xlink="http://www.w3.org/1999/xlink" x="0" y="0" width="240" height="80" viewBox="0, 0, 240, 80">
  <g id="レイヤー_1">
    <path d="M6.012,11.948 L5.976,19.868 L10.512,19.868 Q12.276,19.868 13.14,19.436 Q15.12,18.464 15.12,16.016 Q15.12,13.46 12.996,12.416 Q12.096,11.948 10.26,11.948 z M3.42,9.572 L10.26,9.572 Q12.996,9.572 14.472,10.328 Q16.02,11.12 16.866,12.614 Q17.712,14.108 17.712,15.872 Q17.712,17.636 16.884,19.13 Q16.056,20.624 14.544,21.38 Q13.104,22.1 10.44,22.1 L6.012,22.1 L6.012,32 L3.42,32 z" fill="#000000"/>
    <path d="M22.86,15.548 L25.56,15.548 L25.488,18.716 Q26.28,17.024 27.9,16.088 Q29.52,15.152 31.392,15.152 Q33.984,15.152 35.784,16.952 L34.596,19.436 Q34.416,19.292 34.218,18.968 Q34.02,18.644 33.984,18.608 Q32.976,17.384 31.248,17.384 Q28.404,17.384 26.64,20.156 Q25.488,21.992 25.488,24.008 L25.488,32.036 L22.86,32.036 z" fill="#000000"/>
    <path d="M46.368,17.384 Q44.352,17.384 42.912,19.094 Q41.472,20.804 41.472,23.684 Q41.472,26.636 42.948,28.418 Q44.424,30.2 46.476,30.2 Q48.42,30.2 49.842,28.562 Q51.264,26.924 51.264,23.972 Q51.264,20.804 49.806,19.094 Q48.348,17.384 46.368,17.384 z M53.856,23.864 Q53.856,27.788 51.696,30.11 Q49.536,32.432 46.476,32.432 Q43.308,32.432 41.022,30.002 Q38.736,27.572 38.736,23.9 Q38.736,20.156 41.04,17.672 Q43.344,15.188 46.548,15.188 Q49.536,15.188 51.696,17.492 Q53.856,19.796 53.856,23.864 z" fill="#000000"/>
    <path d="M61.092,31.136 Q59.04,32.252 59.04,33.692 Q59.04,35.06 60.66,35.708 Q62.028,36.248 64.08,36.248 Q66.42,36.248 67.752,35.528 Q69.3,34.664 69.3,33.332 Q69.3,32.684 68.85,32.126 Q68.4,31.568 67.356,31.424 Q67.32,31.424 63.864,31.316 Q62.208,31.28 61.092,31.136 z M63.612,15.008 Q65.916,15.008 67.5,16.592 Q69.48,14.9 72.072,15.116 L72.396,17.24 Q72.072,17.168 71.424,17.168 Q69.948,17.168 68.58,17.96 Q69.408,19.22 69.408,20.732 Q69.408,23 67.644,24.692 Q65.88,26.384 63.468,26.384 Q62.46,26.384 61.38,25.988 Q60.228,27.14 60.228,27.86 Q60.228,28.652 61.2,28.94 Q61.812,29.12 63.54,29.12 Q63.828,29.12 64.908,29.102 Q65.988,29.084 66.456,29.102 Q66.924,29.12 67.716,29.228 Q68.508,29.336 69.12,29.588 Q71.676,30.632 71.676,33.152 Q71.676,35.096 69.804,36.644 Q67.932,38.192 64.116,38.192 Q60.156,38.192 58.41,37.04 Q56.664,35.888 56.664,34.304 Q56.664,32.36 59.364,30.668 Q58.032,29.984 58.032,28.472 Q58.032,26.888 59.904,25.304 Q57.456,23.72 57.456,20.84 Q57.456,18.464 59.292,16.736 Q61.128,15.008 63.612,15.008 z M59.832,20.696 Q59.832,22.172 60.894,23.234 Q61.956,24.296 63.468,24.296 Q64.98,24.296 66.024,23.234 Q67.068,22.172 67.068,20.696 Q67.068,19.184 66.024,18.122 Q64.98,17.06 63.468,17.06 Q61.956,17.06 60.894,18.14 Q59.832,19.22 59.832,20.696 z" fill="#000000"/>
    <path d="M76.86,15.548 L79.56,15.548 L79.488,18.716 Q80.28,17.024 81.9,16.088 Q83.52,15.152 85.392,15.152 Q87.984,15.152 89.784,16.952 L88.596,19.436 Q88.416,19.292 88.218,18.968 Q88.02,18.644 87.984,18.608 Q86.976,17.384 85.248,17.384 Q82.404,17.384 80.64,20.156 Q79.488,21.992 79.488,24.008 L79.488,32.036 L76.86,32.036 z" fill="#000000"/>
    <path d="M104.58,24.296 L103.968,24.296 Q99.612,24.296 98.568,24.548 Q97.128,24.908 96.39,25.754 Q95.652,26.6 95.652,27.572 Q95.652,28.724 96.588,29.57 Q97.524,30.416 99.108,30.416 Q101.592,30.416 103.428,28.472 Q104.58,27.248 104.58,25.376 z M94.572,17.492 Q96.84,15.188 100.44,15.188 Q104.508,15.188 106.164,17.924 Q106.956,19.256 106.956,21.812 L106.956,32 L104.508,32 L104.508,30.2 Q101.844,32.396 98.604,32.396 Q96.12,32.396 94.59,31.028 Q93.06,29.66 93.06,27.752 Q93.06,26.276 94.014,24.998 Q94.968,23.72 96.84,23.036 Q98.82,22.316 103.932,22.316 L104.472,22.316 L104.472,21.704 Q104.472,19.796 103.932,18.896 Q102.96,17.312 100.548,17.312 Q97.56,17.312 95.832,19.148 z" fill="#000000"/>
    <path d="M110.664,32 L110.664,15.548 L113.04,15.548 L113.04,17.168 Q114.372,15.152 116.388,15.152 Q117.468,15.152 118.296,15.836 Q119.124,16.52 119.304,17.564 Q119.808,16.484 120.798,15.818 Q121.788,15.152 122.976,15.152 Q124.632,15.152 125.568,16.484 Q125.676,16.664 125.784,16.862 Q125.892,17.06 125.946,17.276 Q126,17.492 126.054,17.654 Q126.108,17.816 126.144,18.104 Q126.18,18.392 126.198,18.518 Q126.216,18.644 126.216,18.986 Q126.216,19.328 126.216,19.418 Q126.216,19.508 126.216,19.886 Q126.216,20.264 126.216,20.336 L126.216,32.036 L123.768,32.036 L123.768,20.336 Q123.768,18.464 123.552,17.96 Q123.192,17.06 122.256,17.06 Q121.248,17.06 120.348,18.536 Q119.628,19.724 119.628,21.128 L119.628,32 L117.216,32 L117.216,20.552 Q117.216,18.86 117.072,18.392 Q116.676,17.132 115.524,17.132 Q114.408,17.132 113.544,18.68 Q113.04,19.616 113.04,21.02 L113.04,32 z" fill="#000000"/>
    <path d="M128.664,32 L128.664,15.548 L131.04,15.548 L131.04,17.168 Q132.372,15.152 134.388,15.152 Q135.468,15.152 136.296,15.836 Q137.124,16.52 137.304,17.564 Q137.808,16.484 138.798,15.818 Q139.788,15.152 140.976,15.152 Q142.632,15.152 143.568,16.484 Q143.676,16.664 143.784,16.862 Q143.892,17.06 143.946,17.276 Q144,17.492 144.054,17.654 Q144.108,17.816 144.144,18.104 Q144.18,18.392 144.198,18.518 Q144.216,18.644 144.216,18.986 Q144.216,19.328 144.216,19.418 Q144.216,19.508 144.216,19.886 Q144.216,20.264 144.216,20.336 L144.216,32.036 L141.768,32.036 L141.768,20.336 Q141.768,18.464 141.552,17.96 Q141.192,17.06 140.256,17.06 Q139.248,17.06 138.348,18.536 Q137.628,19.724 137.628,21.128 L137.628,32 L135.216,32 L135.216,20.552 Q135.216,18.86 135.072,18.392 Q134.676,17.132 133.524,17.132 Q132.408,17.132 131.544,18.68 Q131.04,19.616 131.04,21.02 L131.04,32 z" fill="#000000"/>
    <path d="M149.652,22.136 L158.688,22.136 Q158.94,20.12 157.68,18.626 Q156.42,17.132 154.44,17.132 Q152.82,17.132 151.398,18.32 Q149.976,19.508 149.652,22.136 z M154.62,15.152 Q156.96,15.152 158.778,16.538 Q160.596,17.924 161.136,20.984 Q161.388,22.676 161.244,24.152 L149.544,24.152 Q149.616,25.916 150.174,27.176 Q150.732,28.436 151.614,29.066 Q152.496,29.696 153.36,29.984 Q154.224,30.272 155.16,30.272 Q157.752,30.272 159.408,28.436 L160.848,29.84 Q158.76,32.36 154.944,32.36 Q151.488,32.36 149.274,30.164 Q147.06,27.968 147.06,23.972 Q147.06,19.688 149.256,17.42 Q151.452,15.152 154.62,15.152 z" fill="#000000"/>
    <path d="M166.86,15.548 L169.56,15.548 L169.488,18.716 Q170.28,17.024 171.9,16.088 Q173.52,15.152 175.392,15.152 Q177.984,15.152 179.784,16.952 L178.596,19.436 Q178.416,19.292 178.218,18.968 Q178.02,18.644 177.984,18.608 Q176.976,17.384 175.248,17.384 Q172.404,17.384 170.64,20.156 Q169.488,21.992 169.488,24.008 L169.488,32.036 L166.86,32.036 z" fill="#000000"/>
    <path d="M113.012,43.948 L112.976,51.868 L117.512,51.868 Q119.276,51.868 120.14,51.436 Q122.12,50.464 122.12,48.016 Q122.12,45.46 119.996,44.416 Q119.096,43.948 117.26,43.948 z M110.42,41.572 L117.26,41.572 Q119.996,41.572 121.472,42.328 Q123.02,43.12 123.866,44.614 Q124.712,46.108 124.712,47.872 Q124.712,49.636 123.884,51.13 Q123.056,52.624 121.544,53.38 Q120.104,54.1 117.44,54.1 L113.012,54.1 L113.012,64 L110.42,64 z" fill="#000000"/>
    <path d="M129.86,47.548 L132.56,47.548 L132.488,50.716 Q133.28,49.024 134.9,48.088 Q136.52,47.152 138.392,47.152 Q140.984,47.152 142.784,48.952 L141.596,51.436 Q141.416,51.292 141.218,50.968 Q141.02,50.644 140.984,50.608 Q139.976,49.384 138.248,49.384 Q135.404,49.384 133.64,52.156 Q132.488,53.992 132.488,56.008 L132.488,64.036 L129.86,64.036 z" fill="#000000"/>
    <path d="M153.368,49.384 Q151.352,49.384 149.912,51.094 Q148.472,52.804 148.472,55.684 Q148.472,58.636 149.948,60.418 Q151.424,62.2 153.476,62.2 Q155.42,62.2 156.842,60.562 Q158.264,58.924 158.264,55.972 Q158.264,52.804 156.806,51.094 Q155.348,49.384 153.368,49.384 z M160.856,55.864 Q160.856,59.788 158.696,62.11 Q156.536,64.432 153.476,64.432 Q150.308,64.432 148.022,62.002 Q145.736,59.572 145.736,55.9 Q145.736,52.156 148.04,49.672 Q150.344,47.188 153.548,47.188 Q156.536,47.188 158.696,49.492 Q160.856,51.796 160.856,55.864 z" fill="#000000"/>
    <path d="M174.644,39.844 Q177.776,39.844 179.684,42.112 L178.496,44.488 Q178.244,44.488 178.208,44.2 Q178.208,43.876 178.136,43.768 Q176.912,41.896 174.536,41.896 Q172.232,41.896 171.224,43.696 Q170.612,44.812 170.612,47.26 L170.612,48.52 L176.012,48.52 L176.012,50.572 L170.612,50.572 L170.612,64 L168.128,64 L168.128,50.572 L164.564,50.572 L164.564,48.52 L168.128,48.52 L168.128,46.9 Q168.128,44.2 169.028,42.724 Q169.892,41.356 171.386,40.6 Q172.88,39.844 174.644,39.844 z" fill="#000000"/>
    <path d="M189.476,40.384 Q190.268,40.384 190.79,40.924 Q191.312,41.464 191.312,42.22 Q191.312,42.976 190.772,43.534 Q190.232,44.092 189.476,44.092 Q188.684,44.092 188.144,43.534 Q187.604,42.976 187.604,42.22 Q187.604,41.464 188.144,40.924 Q188.684,40.384 189.476,40.384 z M184.112,47.548 L190.7,47.548 L190.7,61.912 L194.552,61.912 L194.552,64 L183.896,64 L183.896,61.912 L188.108,61.912 L188.108,49.636 L184.112,49.636 z" fill="#000000"/>
    <path d="M201.356,40.06 L208.628,40.06 L208.628,61.912 L213.452,61.912 L213.452,64 L201.14,64 L201.14,61.912 L206,61.912 L206,42.148 L201.356,42.148 z" fill="#000000"/>
    <path d="M220.652,54.136 L229.688,54.136 Q229.94,52.12 228.68,50.626 Q227.42,49.132 225.44,49.132 Q223.82,49.132 222.398,50.32 Q220.976,51.508 220.652,54.136 z M225.62,47.152 Q227.96,47.152 229.778,48.538 Q231.596,49.924 232.136,52.984 Q232.388,54.676 232.244,56.152 L220.544,56.152 Q220.616,57.916 221.174,59.176 Q221.732,60.436 222.614,61.066 Q223.496,61.696 224.36,61.984 Q225.224,62.272 226.16,62.272 Q228.752,62.272 230.408,60.436 L231.848,61.84 Q229.76,64.36 225.944,64.36 Q222.488,64.36 220.274,62.164 Q218.06,59.968 218.06,55.972 Q218.06,51.688 220.256,49.42 Q222.452,47.152 225.62,47.152 z" fill="#000000"/>
  </g>
</svg>
